<?xml version="1.0" standalone="no"?>
<!DOCTYPE svg PUBLIC "-//W3C//DTD SVG 1.1//EN" "http://www.w3.org/Graphics/SVG/1.1/DTD/svg11.dtd" >
<svg>
<metadata>
Created by FontForge 20120731 at Thu Feb  4 09:25:07 2021
 By fw_worker
Typeface (c) (your company). 2021. All Rights Reserved
</metadata>
<defs>
<font id="numbers" horiz-adv-x="1320" >
  <font-face 
    font-family="numbers"
    font-weight="400"
    font-stretch="normal"
    units-per-em="2048"
    panose-1="2 0 5 0 0 0 0 0 0 0"
    ascent="1638"
    descent="-410"
    cap-height="1520"
    bbox="28.2727 -338 1739 1677"
    underline-thickness="150"
    underline-position="-142"
    unicode-range="U+001D-00B7"
  />
<missing-glyph horiz-adv-x="0" 
 />
    <glyph glyph-name=".notdef" horiz-adv-x="0" 
 />
    <glyph glyph-name=".notdef" horiz-adv-x="0" 
 />
    <glyph glyph-name="nonmarkingreturn" horiz-adv-x="508" 
 />
    <glyph glyph-name="space" unicode=" " horiz-adv-x="508" 
 />
    <glyph glyph-name="space" unicode="&#xa0;" horiz-adv-x="508" 
 />
    <glyph glyph-name="numbersign" unicode="#" horiz-adv-x="1235" 
d="M1157 1014v-58q0 -24 -29 -24h-213l-51 -332h207q19 0 19 -16v-58q0 -24 -29 -24h-211l-74 -479q-2 -27 -24 -23l-54 8q-12 2 -16 5t-4 14l72 475h-324l-74 -479q-2 -25 -22 -23l-56 8q-20 2 -18 19l72 475h-228q-12 0 -16 5t-4 15v58q0 20 14 20h250l51 332h-227
q-12 0 -16.5 5t-4.5 15v58q0 20 15 20h248l71 471q4 21 19 19l61 -9q19 -4 17 -26l-70 -455h323l72 471q2 10 7 15.5t12 3.5l61 -9q21 -2 18 -26l-69 -455h207q18 0 18 -16zM817 932h-325l-52 -332h326z" />
    <glyph glyph-name="dollar" unicode="$" horiz-adv-x="1212" 
d="M1081.5 169q-53.5 -85 -150.5 -135t-222 -52q-13 0 -17 -3.5t-4 -13.5v-125q0 -14 -5 -19t-17 -5h-64q-20 0 -20 18v131q0 10 -3.5 13.5t-11.5 3.5q-172 2 -284.5 60t-196.5 177q-10 10 -10 23q0 10 8 16l53 47q13 8 19 8q10 0 20 -10q78 -100 166 -149.5t221 -51.5
q10 0 14.5 3.5t4.5 13.5v538q0 19 -10.5 31t-32.5 23q-158 61 -246 119.5t-127 129t-39 170.5q0 164 120 275t314 129q8 0 14.5 5t6.5 13v107q0 18 14 18h70q20 0 20 -24v-105q0 -12 19 -16q116 -12 208.5 -58.5t171.5 -125.5q11 -7 11 -17q0 -8 -9 -16l-61 -60
q-6 -6 -12 -6q-8 0 -21 15q-47 55 -122.5 94t-163.5 51l-9 2q-12 0 -12 -18v-555q0 -15 4 -20t19 -11l69 -25q176 -69 266.5 -172.5t90.5 -249.5q0 -106 -53.5 -191zM582 1397q0 10 -6.5 14t-16.5 2q-133 -12 -213 -88t-80 -188q0 -84 60.5 -147.5t214.5 -131.5l16 -4
q25 0 25 31v512zM705 102q131 2 210.5 74t79.5 180q0 101 -63.5 167.5t-210.5 127.5q-6 2 -16 2q-17 0 -17 -20v-518q0 -13 17 -13z" />
    <glyph glyph-name="percent" unicode="%" horiz-adv-x="1862" 
d="M647 1490q78 -52 122 -149.5t44 -232.5q0 -205 -95 -320.5t-249 -115.5q-156 0 -252 115.5t-96 320.5q0 135 45 232.5t124 149.5t179 52t178 -52zM487 10q-6 -10 -13 -14t-21 -4h-45q-21 0 -21 14q0 4 8 21l996 1497q6 8 13 10t15 2h58q22 0 10 -20zM640 853
q65 97 65 253q0 158 -65 255t-173 97q-109 0 -173.5 -98t-64.5 -254t64.5 -253t173.5 -97q108 0 173 97zM1643.5 734q95.5 -116 95.5 -318q0 -205 -94.5 -320.5t-247.5 -115.5q-156 0 -252 115.5t-96 320.5q0 202 96 318t252 116q151 0 246.5 -116zM1564.5 162.5
q65.5 99.5 65.5 251.5q0 151 -65.5 251.5t-169.5 100.5q-107 0 -172.5 -100.5t-65.5 -251.5q0 -152 65.5 -251.5t172.5 -99.5q104 0 169.5 99.5z" />
    <glyph glyph-name="ampersand" unicode="&#x26;" horiz-adv-x="1561" 
d="M934.5 1460q103.5 -82 103.5 -221q0 -119 -91 -225.5t-283 -190.5q-17 -10 -17 -16q0 -4 10 -19l349 -407q10 -10 14 -10t18 12q78 76 168 206t115 204q8 18 33 12l61 -23q10 -4 14.5 -12t2.5 -16q-29 -90 -119 -221.5t-195 -239.5q-8 -8 -8 -14q0 -9 12 -19
q60 -57 165.5 -97t199.5 -40q26 0 26 -25v-65q0 -19 -7 -26t-27 -7q-111 0 -246 51t-221 119q-13 8 -17 8q-8 0 -18 -10q-201 -178 -453 -178q-202 0 -322 107.5t-120 287.5q0 125 71.5 226.5t235.5 199.5q21 12 21 23q0 8 -19 28q-137 144 -137 301q0 107 54 193t149.5 136
t214.5 50q159 0 262.5 -82zM474 1359q-75 -79 -75 -190q0 -55 21.5 -104t71.5 -102l51 -60q6 -6 16 -6q6 0 19 4q174 82 249.5 162t75.5 176t-64.5 147.5t-162.5 51.5q-127 0 -202 -79zM502 735q-13 0 -29 -8q-113 -55 -178.5 -145t-65.5 -195q0 -125 90.5 -205t227.5 -80
q90 0 181 39t161 101q16 16 16 26q0 8 -10 23l-365 426q-16 18 -28 18z" />
    <glyph glyph-name="parenleft" unicode="(" horiz-adv-x="569" 
d="M529 1514.5q3 -5.5 -1 -11.5q-108 -215 -172.5 -452.5t-64.5 -468.5q0 -228 54 -447t165 -454q2 -3 2 -9q0 -10 -14 -10h-54q-14 0 -22 12q-135 234 -203.5 448t-68.5 462q0 245 78.5 482t211.5 439q9 15 29 15h47q10 0 13 -5.5z" />
    <glyph glyph-name="parenright" unicode=")" horiz-adv-x="569" 
d="M100 1520q19 0 31 -15q133 -202 212 -439t79 -482q0 -248 -68.5 -462t-203.5 -448q-11 -12 -23 -12h-53q-11 0 -14 6t1 13q111 235 165.5 454t54.5 447q0 231 -65.5 467.5t-174.5 453.5q-2 2 -2 6q0 11 14 11h47z" />
    <glyph glyph-name="plus" unicode="+" horiz-adv-x="1128" 
d="M995 803v-72q0 -22 -28 -22h-346v-359q0 -18 -17 -18h-72q-22 0 -22 28v347h-354q-23 0 -23 20v72q0 20 14 20h361v352q0 23 20 23h72q18 0 18 -14v-361h359q18 0 18 -16z" />
    <glyph glyph-name="comma" unicode="," horiz-adv-x="414" 
d="M93 -277.5q-3 7.5 1 17.5l90 231l4 17q0 12 -20 12h-23q-22 0 -22 20v164q0 17 16 17h144q16 0 16 -17v-145q0 -16 -6 -27l-135 -278q-8 -19 -35 -19h-19q-8 0 -11 7.5z" />
    <glyph glyph-name="hyphen" unicode="-" horiz-adv-x="780" 
d="M647 510q0 -25 -29 -25h-462q-23 0 -23 19v76q0 20 17 20l479 2q18 0 18 -18v-74z" />
    <glyph glyph-name="hyphen" unicode="&#xad;" horiz-adv-x="780" 
d="M647 510q0 -25 -29 -25h-462q-23 0 -23 19v76q0 20 17 20l479 2q18 0 18 -18v-74z" />
    <glyph glyph-name="period" unicode="." horiz-adv-x="406" 
d="M291 29q0 -17 -7.5 -23t-27.5 -6h-117q-26 0 -26 25v155q0 23 18 23h141q19 0 19 -21v-153z" />
    <glyph glyph-name="slash" unicode="/" horiz-adv-x="688" 
d="M29 -88l514 1591q6 17 22 17h78q23 0 14 -29l-505 -1571q-9 -22 -31 -22h-78q-18 0 -14 14z" />
    <glyph glyph-name="zero" unicode="0" 
d="M945 1450q125 -90 196.5 -266t71.5 -428q0 -250 -71.5 -425t-196.5 -263t-285 -88q-159 0 -284 88t-197 261t-72 423q0 252 72 430t198 268t285 90q158 0 283 -90zM990.5 263q103.5 159 103.5 493q0 336 -104.5 498.5t-289.5 162.5q-184 0 -289.5 -163.5t-105.5 -497.5
q0 -332 106.5 -492t290.5 -160q185 0 288.5 159z" />
    <glyph glyph-name="one" unicode="1" 
d="M1027 111v-93q0 -6 -5.5 -12t-15.5 -6h-692q-18 0 -18 16v95q0 16 16 16h272q15 0 15 10v1194q0 23 -17 15l-266 -101l-8 -2q-15 0 -15 21v69q0 13 2.5 16t14.5 9l295 147q24 15 53 15h76q8 0 13 -6.5t5 -16.5v-1356q0 -14 13 -14h243q19 0 19 -16z" />
    <glyph glyph-name="two" unicode="2" 
d="M672 631q170 166 238.5 275.5t68.5 226.5q0 88 -46 152.5t-120.5 97t-156.5 32.5q-99 0 -197 -50t-164 -151q-6 -10 -18 -10q-10 0 -21 8l-65 41q-14 13 -14 23q0 8 8 18q86 123 215 184.5t272 61.5q125 0 229.5 -46t167 -139t62.5 -233q0 -133 -74 -250.5t-264 -304.5
l-422 -409q-10 -11 -10 -15q0 -10 22 -10h742q12 0 17 -4t5 -16v-93q0 -20 -22 -20h-920q-16 0 -23.5 6t-7.5 23v67q0 23 8.5 38.5t37.5 39.5z" />
    <glyph glyph-name="three" unicode="3" 
d="M191 1327q0 8 6 14q98 103 210.5 151t248.5 48q149 0 261.5 -50t173 -136t60.5 -195q0 -115 -70.5 -205t-193.5 -133q-23 -6 -23 -12t23 -12q133 -37 222 -138.5t89 -242.5q0 -125 -64.5 -224.5t-193.5 -155.5t-313 -56q-152 0 -272.5 50t-223.5 158q-8 9 -8 13
q0 8 12 16l70 57q10 9 16.5 8t12.5 -8q90 -92 186 -131t219 -39q191 0 298.5 83t107.5 221q0 102 -58.5 175.5t-152.5 111.5t-201 38l-182 2q-23 0 -23 17v86q0 8 6.5 12t16.5 4l147 2q111 0 203 39t145.5 106.5t53.5 151.5q0 74 -44 134.5t-122 95t-176 34.5
q-209 0 -373 -160q-8 -8 -19 -8q-8 0 -16 8l-53 56q-6 6 -6 14z" />
    <glyph glyph-name="four" unicode="4" 
d="M848 1520h108q23 0 23 -23v-938q0 -16 14 -16h201q24 0 24 -19v-80q0 -24 -26 -24h-197q-16 0 -16 -21v-374q0 -25 -29 -25h-104q-23 0 -23 25v381q0 14 -18 14h-676q-27 0 -27 24v88q0 23 27 58l678 913q14 17 41 17zM795 543q8 0 13 4t5 10v727q0 27 -8 27t-21 -19
l-534 -723q-6 -8 -6 -14q0 -12 20 -12h531z" />
    <glyph glyph-name="five" unicode="5" 
d="M1108 1520q16 0 21.5 -4.5t2.5 -20.5l-8 -88q0 -4 -1 -10t-6 -7t-15 -1h-711q-20 0 -22 -21l-37 -494v-6q0 -10 7 -15t15 -1q97 53 171.5 78.5t178.5 25.5q138 0 251.5 -49t182 -151.5t68.5 -257.5q0 -160 -73.5 -278t-204.5 -179t-295 -61q-150 0 -282 52t-228 152
q-10 15 -10 19q0 8 12 16l70 60q2 2 8 2q10 0 18 -9q100 -90 183 -131t206 -41q207 0 326 108.5t119 285.5q0 168 -104.5 255t-262.5 87q-104 0 -190 -35t-185 -96q-12 -7 -18 -7q-2 0 -6 3.5t-11 5.5l-77 47q-4 4 -10.5 7t-6.5 7q0 2 2 8t2 17l56 702q2 18 7 21.5t32 3.5
h825z" />
    <glyph glyph-name="six" unicode="6" 
d="M1109 1360q4 -12 5 -17.5t-10 -11.5l-90 -43q-2 -2 -8 -2q-10 0 -20 14q-49 58 -108.5 86.5t-143.5 28.5q-232 0 -345.5 -159.5t-113.5 -424.5q0 -26 3 -36.5t11 -10.5q9 0 21 7q110 53 197 81.5t200 28.5q154 0 265.5 -57.5t169 -157.5t57.5 -229q0 -140 -69 -248.5
t-186.5 -168.5t-258.5 -60q-174 0 -301 89t-195 260t-68 410q0 248 73 428.5t210 276.5t328 96q235 0 377 -180zM523.5 752.5q-109.5 -27.5 -175.5 -70.5q-26 -18 -35.5 -36.5t-9.5 -57.5q0 -109 46 -221.5t138.5 -189.5t225.5 -77q100 0 181 47.5t128 128t47 177.5
q0 90 -42 164.5t-121 118.5t-185 44q-88 0 -197.5 -27.5z" />
    <glyph glyph-name="seven" unicode="7" 
d="M1152 1520q12 0 18 -6.5t4 -14.5v-63q0 -29 -24 -64q-133 -194 -257 -453.5t-210 -500t-109 -383.5q-4 -35 -28 -35h-119q-33 0 -23 33q66 266 216.5 623.5t373.5 705.5q8 12 8 16q0 11 -20 11h-822q-16 0 -16 20l10 92q2 10 7.5 14.5t19.5 4.5h971z" />
    <glyph glyph-name="eight" unicode="8" 
d="M909.5 1488q110.5 -52 171 -147.5t60.5 -218.5q0 -98 -48 -175t-161 -159q-16 -10 -16 -16t14 -14q136 -49 207.5 -142.5t71.5 -220.5q0 -125 -69.5 -219t-195.5 -145t-292 -51q-252 0 -396.5 105t-144.5 294q0 110 55.5 197.5t178.5 166.5q26 19 26 27q0 10 -26 23
q-193 102 -193 315q0 121 64.5 219t179.5 155.5t260 57.5q143 0 253.5 -52zM501 1380q-81 -39 -128 -108.5t-47 -153.5q0 -205 227 -254l223 -49q39 -10 99.5 36t104.5 123t44 154q0 132 -93 211.5t-249 79.5q-100 0 -181 -39zM971.5 180q107.5 80 107.5 213
q0 105 -54 167.5t-175 88.5l-283 68q-4 2 -16 2q-47 0 -113.5 -45t-114 -120t-47.5 -163q0 -137 105.5 -214t300.5 -77q182 0 289.5 80z" />
    <glyph glyph-name="nine" unicode="9" 
d="M201 160q-7 10 -7 16q0 8 11 12l88 43q4 2 10 2q10 0 20 -12q48 -57 112.5 -87t158.5 -30q221 0 332.5 161t111.5 423q0 27 -2 37t-10 10t-21 -6q-108 -55 -193 -83t-198 -28q-151 0 -261.5 57.5t-168 159t-57.5 228.5q0 139 67.5 247.5t185.5 169t259 60.5
q172 0 297 -89t191.5 -260t66.5 -411q0 -248 -72 -428t-207 -276t-321 -96q-248 0 -393 180zM815.5 771q106.5 32 171.5 79q29 18 37 36.5t8 57.5q0 105 -45 215.5t-136 185t-220 74.5q-101 0 -182.5 -46t-128 -127t-46.5 -177q0 -92 42 -167t120 -119t180 -44
q93 0 199.5 32z" />
    <glyph glyph-name="colon" unicode=":" horiz-adv-x="406" 
d="M291 860q0 -16 -7.5 -22.5t-27.5 -6.5h-117q-26 0 -26 25v154q0 22 18 22h141q19 0 19 -20v-152zM291 35q0 -17 -7.5 -23t-27.5 -6h-117q-14 0 -20 6t-6 21v151q0 23 18 23h141q19 0 19 -21v-151z" />
    <glyph glyph-name="semicolon" unicode=";" horiz-adv-x="453" 
d="M113 854v154q0 24 18 24h141q19 0 19 -20v-154q0 -16 -7.5 -22.5t-27.5 -6.5h-117q-26 0 -26 25zM93 -279.5q-3 7.5 1 19.5l90 231l4 17q0 12 -20 12h-23q-22 0 -22 20v164q0 17 16 17h144q16 0 16 -17v-145q0 -16 -6 -27l-135 -280q-8 -19 -35 -19h-19q-8 0 -11 7.5z
" />
    <glyph glyph-name="semicolon" unicode="&#x37e;" horiz-adv-x="453" 
d="M113 854v154q0 24 18 24h141q19 0 19 -20v-154q0 -16 -7.5 -22.5t-27.5 -6.5h-117q-26 0 -26 25zM93 -279.5q-3 7.5 1 19.5l90 231l4 17q0 12 -20 12h-23q-22 0 -22 20v164q0 17 16 17h144q16 0 16 -17v-145q0 -16 -6 -27l-135 -280q-8 -19 -35 -19h-19q-8 0 -11 7.5z
" />
    <glyph glyph-name="less" unicode="&#x3c;" horiz-adv-x="1096" 
d="M956 373q0 -31 -24 -31l-17 4l-778 305q-22 11 -22 29v98q0 19 22 29l781 311q12 4 18 4q22 0 22 -28v-76q0 -23 -36 -39l-633 -250l631 -250q20 -8 28 -16t8 -23v-67z" />
    <glyph glyph-name="equal" unicode="=" horiz-adv-x="1128" 
d="M995 934q0 -23 -28 -23l-811 -2q-23 0 -23 21v71q0 21 14 21l830 2q18 0 18 -16v-74zM995 477q0 -22 -28 -22l-811 -2q-23 0 -23 20v72q0 20 14 20h830q18 0 18 -16v-72z" />
    <glyph glyph-name="greater" unicode="&#x3e;" horiz-adv-x="1096" 
d="M148.5 463q9.5 8 29.5 16l629 250l-631 250q-20 8 -28.5 16.5t-8.5 22.5v76q0 28 23 28q6 0 18 -4l778 -311q23 -10 23 -29v-98q0 -18 -23 -29l-778 -305l-16 -4q-25 0 -25 31v67q0 15 9.5 23z" />
    <glyph glyph-name="A" unicode="A" 
d="M93.5 9q-5.5 9 0.5 26l466 1456q6 16 13 22.5t23 6.5h141q34 0 41 -31l461 -1454l2 -10q0 -25 -20 -25h-128q-21 0 -29 20l-124 398q-3 8 -7 12t-14 4h-524q-17 0 -22 -16l-128 -400q-5 -18 -27 -18h-108q-11 0 -16.5 9zM872 590q19 0 14 26l-216 674q-5 19 -13 19
q-7 0 -12 -19l-220 -678l-3 -12q0 -10 14 -10h436z" />
    <glyph glyph-name="B" unicode="B" 
d="M112 7q-7 7 -7 18v1466q0 29 26 29h473q273 0 421.5 -101.5t148.5 -292.5q0 -125 -65.5 -208.5t-203.5 -133.5q-8 -2 -8 -8t8 -8q306 -78 306 -362q0 -203 -152 -304.5t-440 -101.5h-490q-10 0 -17 7zM725 842q143 0 243.5 61.5t100.5 200.5q0 135 -98.5 203.5
t-272.5 68.5h-276q-27 0 -27 -24v-484q0 -26 19 -26h311zM702 143q201 0 299.5 65.5t98.5 203.5q0 143 -102.5 212.5t-272.5 69.5h-301q-16 0 -22.5 -5t-6.5 -19v-498q0 -16 4 -22.5t15 -6.5h288z" />
    <glyph glyph-name="C" unicode="C" 
d="M940 1482.5q114 -57.5 188.5 -153.5t89.5 -209l2 -14q0 -8 -4.5 -12t-10.5 -4l-144 -13h-3q-6 0 -10 5t-6 16q-28 133 -118 213t-218 80q-201 0 -307.5 -159t-106.5 -474q0 -309 106.5 -466t316.5 -157q136 0 227 70.5t146 222.5q4 14 23 8l113 -28q13 -5 10 -29
q-29 -103 -100 -194t-180 -148t-246 -57q-190 0 -325.5 94t-208.5 270t-73 418t72 417t206.5 268t320.5 93q126 0 240 -57.5z" />
    <glyph glyph-name="D" unicode="D" 
d="M441 1518q405 -7 592.5 -193t187.5 -557q0 -768 -800 -768h-294q-28 0 -28 33v1460q0 14 6 20.5t22 6.5q198 0 314 -2zM395 1341v-1171q0 -12 5.5 -17.5t19.5 -5.5h78q229 0 369.5 60.5t207 196t66.5 360.5t-63.5 355t-193.5 186.5t-345 62.5q-41 2 -127 2q-17 0 -17 -29
z" />
    <glyph glyph-name="E" unicode="E" 
d="M184 1513.5q5 6.5 19 6.5h920q20 0 20 -23v-104q0 -25 -26 -25h-715q-16 0 -21.5 -5t-5.5 -20v-479q0 -22 23 -22h530q23 0 23 -23v-108q0 -19 -23 -19h-530q-23 0 -23 -22v-498q0 -12 4 -16t17 -4h751q13 0 18 -4.5t5 -16.5v-108q0 -23 -23 -23h-940q-16 0 -22 6t-6 23
v1462q0 16 5 22.5z" />
    <glyph glyph-name="F" unicode="F" 
d="M215 1520h901q21 0 21 -23v-104q0 -25 -27 -25h-696q-16 0 -21.5 -5t-5.5 -20v-503q0 -23 23 -23h547q22 0 22 -20v-109q0 -10 -5 -14t-17 -4h-547q-23 0 -23 -23v-620q0 -27 -28 -27h-140q-16 0 -22 6t-6 23v1462q0 29 24 29z" />
    <glyph glyph-name="a" unicode="a" 
d="M539 -20q-160 0 -251 80.5t-91 215.5q0 164 138 258.5t401 110.5l159 12q35 5 35 31v55q0 111 -68.5 175.5t-185.5 64.5q-180 0 -295 -164q-6 -10 -12 -13t-16 1l-111 37q-10 4 -10 14q0 6 6 19q61 108 175 168.5t269 60.5q201 0 307.5 -93t106.5 -257v-725q0 -19 -6 -25
t-23 -6h-102q-25 0 -29 33l-4 94q-2 14 -10 14t-19 -10q-157 -151 -364 -151zM784 553l-133 -12q-190 -13 -293.5 -74t-103.5 -170q0 -88 62.5 -139.5t166.5 -51.5q64 0 125.5 23t108.5 61q47 37 72.5 79t25.5 81v170q0 33 -31 33z" />
    <glyph glyph-name="b" unicode="b" 
d="M210 0q-18 0 -25 7t-7 26v1458q0 29 24 29h127q21 0 21 -29v-502q0 -22 10 -22q6 0 20 10q138 129 328 129q215 0 326.5 -154.5t111.5 -402.5q0 -264 -123.5 -416.5t-343.5 -152.5q-124 0 -206 50t-127 111q-7 9 -13 9q-8 0 -10 -15l-10 -102q-4 -19 -11.5 -26t-25.5 -7
h-66zM330 367q0 -72 42 -132.5t109.5 -96.5t141.5 -36q147 0 236 111t89 332q0 209 -80 322.5t-231 113.5q-92 0 -171 -41t-136 -111v-462z" />
    <glyph glyph-name="c" unicode="c" 
d="M947.5 1036.5q105.5 -69.5 168.5 -184.5l4 -16q0 -13 -14 -15l-113 -26l-6 -2q-10 0 -20 16q-66 88 -126.5 129t-138.5 41q-159 0 -253.5 -118t-94.5 -318q0 -203 95.5 -320t257.5 -117q96 0 168.5 47.5t132.5 145.5q6 10 12 11t14 -3l88 -33q15 -6 9 -26
q-64 -119 -174.5 -193.5t-264.5 -74.5q-149 0 -266 70.5t-182.5 197.5t-65.5 291q0 163 65.5 293.5t183.5 202t265 71.5q150 0 255.5 -69.5z" />
    <glyph glyph-name="d" unicode="d" 
d="M965 29v88q0 18 -10 18q-6 0 -17 -10q-61 -62 -133.5 -103.5t-187.5 -41.5q-131 0 -233.5 61t-162 185t-59.5 300q0 172 61.5 303.5t170 204t248.5 72.5q92 0 159.5 -28.5t126.5 -80.5q17 -12 23 -12q10 0 10 27v481q0 27 23 27h124q23 0 23 -27v-1460q0 -19 -6 -26
t-27 -7h-104q-29 0 -29 29zM762.5 945q-66.5 34 -144.5 34q-155 0 -249.5 -117t-94.5 -330q0 -215 93.5 -321.5t238.5 -106.5q80 0 146.5 38t104.5 95.5t38 114.5v494q-66 65 -132.5 99z" />
    <glyph glyph-name="e" unicode="e" 
d="M379.5 293q48.5 -84 130 -133t180.5 -49q205 0 319 170q8 8 14.5 9t14.5 -3l86 -43q16 -11 4 -29q-80 -123 -190.5 -179t-264.5 -56q-149 0 -268 69.5t-185.5 195.5t-66.5 287q0 175 67.5 305t185.5 199.5t265 69.5q148 0 259.5 -65.5t173 -191.5t61.5 -298v-8
q0 -19 -6 -28t-25 -9h-784q-19 0 -19 -31q0 -98 48.5 -182zM899 618q23 0 29 5.5t6 23.5q0 90 -38 167t-110.5 123t-169.5 46q-104 0 -182 -52t-119 -135t-39 -178h623z" />
    <glyph glyph-name="f" unicode="f" 
d="M989 1065v-88q0 -19 -20 -19h-234q-16 0 -16 -18v-911q0 -29 -25 -29h-125q-22 0 -22 27v915q0 16 -15 16h-200q-21 0 -21 19v88q0 20 23 20h194q19 0 19 21v149q0 265 256 265h170q26 0 26 -25v-80q0 -20 -22 -20h-144q-118 0 -118 -148v-143q0 -19 18 -19h236
q20 0 20 -20z" />
    <glyph glyph-name="periodcentered" unicode="&#xb7;" horiz-adv-x="780" 
d="M473 490q0 -12 -5.5 -17t-18.5 -5h-112q-11 0 -15.5 4.5t-4.5 14.5v115q0 17 14 17h129q13 0 13 -15v-114z" />
  </font>
</defs>
</svg>
